<svg width="35" height="36" viewBox="0 0 35 36" fill="none" xmlns="http://www.w3.org/2000/svg">
<path d="M17.5602 35.4795C12.7336 35.4795 8.64023 33.8129 5.28023 30.4795C1.92023 27.1462 0.240234 22.9862 0.240234 17.9995C0.240234 13.0662 1.92023 8.91953 5.28023 5.55953C8.6669 2.19953 12.7602 0.519531 17.5602 0.519531C22.4402 0.519531 26.5336 2.1062 29.8402 5.27953C33.1469 8.45286 34.8002 12.3462 34.8002 16.9595C34.8002 19.7595 34.1736 22.0529 32.9202 23.8395C31.6669 25.5995 30.0002 26.4795 27.9202 26.4795C25.3869 26.4795 23.6936 25.4662 22.8402 23.4395C22.3069 24.2395 21.4669 24.9595 20.3202 25.5995C19.2002 26.2395 17.9202 26.5595 16.4802 26.5595C14.1602 26.5595 12.2536 25.7329 10.7602 24.0795C9.2669 22.4262 8.52024 20.4129 8.52024 18.0395C8.52024 15.6662 9.2669 13.6529 10.7602 11.9995C12.2536 10.3462 14.1469 9.51953 16.4402 9.51953C17.8002 9.51953 19.0002 9.79953 20.0402 10.3595C21.0802 10.9195 21.8802 11.5729 22.4402 12.3195V10.0795H25.4802V20.9995C25.4802 23.7462 26.5202 25.1195 28.6002 25.1195C30.0402 25.1195 31.2269 24.3729 32.1602 22.8795C33.1202 21.3595 33.6002 19.3729 33.6002 16.9195C33.6002 12.7062 32.1069 9.1062 29.1202 6.11953C26.1602 3.13286 22.3069 1.63953 17.5602 1.63953C12.9202 1.63953 9.0669 3.2262 6.00023 6.39953C2.96023 9.57286 1.44023 13.4395 1.44023 17.9995C1.44023 22.5862 2.96023 26.4529 6.00023 29.5995C9.0669 32.7729 12.9202 34.3595 17.5602 34.3595C20.4936 34.3595 23.2802 33.6529 25.9202 32.2395V33.4795C23.4136 34.8129 20.6269 35.4795 17.5602 35.4795ZM17.2802 23.8395C18.3736 23.8395 19.3736 23.5595 20.2802 22.9995C21.1869 22.4395 21.9069 21.7062 22.4402 20.7995V15.2795C21.9069 14.3729 21.1869 13.6395 20.2802 13.0795C19.3736 12.5195 18.3736 12.2395 17.2802 12.2395C15.6802 12.2395 14.3469 12.7995 13.2802 13.9195C12.2136 15.0129 11.6802 16.3862 11.6802 18.0395C11.6802 19.6395 12.2136 21.0129 13.2802 22.1595C14.3469 23.2795 15.6802 23.8395 17.2802 23.8395Z" fill="#FF6060"/>
</svg>
