<svg width="34" height="34" viewBox="0 0 34 34" fill="none" xmlns="http://www.w3.org/2000/svg">
<path fill-rule="evenodd" clip-rule="evenodd" d="M3.93938 0.0800604C2.9762 0.290521 2.17498 0.732237 1.45946 1.44719C0.925908 1.98032 0.613624 2.44595 0.346616 3.10656C-0.0273005 4.03152 -0.0110114 3.3533 0.00807005 17.2047L0.0256888 29.976L0.182928 30.441C0.749388 32.1166 1.87945 33.2461 3.54944 33.8059L4.01484 33.962L10.0484 33.9806L16.082 33.9993V27.9518V21.9043H14.0875H12.0929V19.9113V17.9183H14.0819H16.0711L16.0999 15.0451C16.1313 11.9078 16.1442 11.7876 16.5453 10.9037C17.0443 9.80404 17.938 8.91311 19.0453 8.41147C19.918 8.01606 20.0454 8.0025 23.1794 7.97115L26.0549 7.94238V9.94083V11.9393L23.8443 11.9394L21.6336 11.9395L21.2347 12.1306C20.7515 12.3622 20.4675 12.6496 20.2421 13.1351L20.0725 13.5005L20.0719 15.7094L20.0712 17.9183H22.9686H25.866L25.8285 18.101C25.8079 18.2015 25.6704 19.0162 25.523 19.9113C25.3756 20.8065 25.2382 21.6212 25.2175 21.7217L25.18 21.9043H22.6257H20.0712V27.9522V34L25.041 33.9806L30.0108 33.9611L30.4762 33.8055C32.1625 33.2417 33.32 32.0731 33.8442 30.4055L34 29.9096V16.9883V4.06699L33.8443 3.56874C33.3254 1.90844 32.1706 0.743597 30.4762 0.171672L30.0108 0.0145571L17.1791 0.00273194C6.65899 -0.00696733 4.27381 0.00698367 3.93938 0.0800604ZM29.9846 2.15019C30.9417 2.5163 31.5517 3.14397 31.88 4.10021C32.0012 4.45323 32.0054 4.8897 32.0054 16.9883C32.0054 29.0869 32.0012 29.5233 31.88 29.8763C31.5513 30.834 30.9358 31.4664 29.9846 31.8239C29.6245 31.9593 29.4849 31.9647 25.8389 31.9871L22.0658 32.0102V27.9538V23.8973H24.4873H26.9087L26.9464 23.7147C26.9672 23.6142 27.2541 21.9027 27.5841 19.9113C27.9141 17.92 28.201 16.2085 28.2218 16.108L28.2595 15.9253H25.1626H22.0658V14.9288V13.9323H25.0576H28.0495V9.94634V5.96034H24.2353C21.1795 5.96034 20.3102 5.97974 19.8638 6.05787C17.3745 6.49347 15.2625 8.30557 14.4414 10.7103C14.148 11.5696 14.0875 12.1507 14.0875 14.1071V15.9253H12.0929H10.0983V19.9113V23.8973H12.0929H14.0875V27.953V32.0087L9.25061 31.9872C4.50884 31.9662 4.40645 31.963 4.04104 31.8248C3.08776 31.4642 2.4743 30.8335 2.14573 29.8763C2.02452 29.5233 2.02027 29.0869 2.02027 16.9883C2.02027 4.8897 2.02452 4.45323 2.14573 4.10021C2.53779 2.95815 3.39373 2.22446 4.54673 2.0421C4.72957 2.0132 10.444 1.99361 17.2455 1.99859L29.6119 2.00756L29.9846 2.15019Z" fill="#FF6060"/>
</svg>
