<svg width="34" height="34" viewBox="0 0 34 34" fill="none" xmlns="http://www.w3.org/2000/svg">
<path fill-rule="evenodd" clip-rule="evenodd" d="M7.74277 0.129325C6.55858 0.348631 5.70512 0.654211 4.75644 1.19849C2.24186 2.64124 0.576553 5.04849 0.11263 7.91122C-0.0375432 8.83805 -0.0375432 25.158 0.11263 26.0849C0.705225 29.7417 3.32479 32.6891 6.85906 33.6755C8.02792 34.0017 7.97351 34 17 34C26.0265 34 25.9721 34.0017 27.1409 33.6755C28.7287 33.2324 30.1801 32.3655 31.3405 31.1674C32.7387 29.7236 33.5649 28.0748 33.8874 26.0849C34.0375 25.158 34.0375 8.83805 33.8874 7.91122C33.6967 6.73479 33.3424 5.71511 32.788 4.74736C31.5421 2.5727 29.5141 0.982903 27.1409 0.320603C25.9694 -0.00636245 26.0373 -0.00423716 16.9336 0.00127537C8.93221 0.00612373 8.36543 0.0140272 7.74277 0.129325ZM26.0084 2.15488C28.9555 2.71443 31.2716 5.03248 31.8307 7.98208C31.9814 8.77708 31.9814 25.219 31.8307 26.014C31.2716 28.9636 28.9555 31.2817 26.0084 31.8412C25.214 31.992 8.78595 31.992 7.99162 31.8412C5.04451 31.2817 2.72841 28.9636 2.16933 26.014C2.01862 25.219 2.01862 8.77708 2.16933 7.98208C2.72449 5.05307 5.01982 2.7404 7.95015 2.15767C8.3205 2.08401 10.0135 2.06575 16.9429 2.0607C24.3018 2.05532 25.5524 2.06834 26.0084 2.15488ZM26.4042 4.31526C25.8952 4.40087 25.2619 4.73554 24.8748 5.12347C23.248 6.75379 24.1553 9.51649 26.4465 9.90927C27.9604 10.1688 29.4257 9.08067 29.6786 7.50893C29.917 6.02666 28.8315 4.56013 27.3115 4.31101C26.8766 4.23968 26.8525 4.23981 26.4042 4.31526ZM27.2257 6.40796C27.456 6.52711 27.6834 6.86669 27.6837 7.09204C27.6844 7.51073 27.3028 7.89906 26.8907 7.89906C26.0644 7.89906 25.7835 6.77158 26.5193 6.40809C26.7793 6.27964 26.9777 6.27958 27.2257 6.40796ZM16.4359 7.67577C13.6736 7.85934 11.0938 9.28696 9.43635 11.5493C8.65303 12.6184 7.99892 14.212 7.7723 15.6033C7.66799 16.2439 7.66799 17.7522 7.7723 18.3928C8.26775 21.4346 10.1848 24.0361 12.9131 25.3688C14.2611 26.0274 15.5028 26.3147 17 26.3147C18.4972 26.3147 19.7389 26.0274 21.0869 25.3688C23.8152 24.0361 25.7323 21.4346 26.2277 18.3928C26.332 17.7522 26.332 16.2439 26.2277 15.6033C25.7323 12.5615 23.8152 9.96002 21.0869 8.62725C19.6462 7.9235 17.9452 7.57548 16.4359 7.67577ZM18.4975 9.8594C20.7967 10.3261 22.8484 12.049 23.7395 14.2613C24.1474 15.2742 24.2546 15.8436 24.2546 16.998C24.2546 18.1525 24.1474 18.7219 23.7395 19.7348C23.0076 21.5517 21.5498 23.0107 19.7344 23.7432C18.7224 24.1515 18.1535 24.2588 17 24.2588C15.8465 24.2588 15.2776 24.1515 14.2656 23.7432C12.4502 23.0107 10.9924 21.5517 10.2605 19.7348C9.85256 18.7219 9.74539 18.1525 9.74539 16.998C9.74539 15.8436 9.85256 15.2742 10.2605 14.2613C11.2297 11.8553 13.4629 10.1166 16.0378 9.76349C16.65 9.67954 17.8402 9.72597 18.4975 9.8594Z" fill="#FF6060"/>
</svg>
