<svg width="23" height="32" viewBox="0 0 23 32" fill="none" xmlns="http://www.w3.org/2000/svg">
<path fill-rule="evenodd" clip-rule="evenodd" d="M10.4861 0.0175281C10.4333 0.0302208 10.1164 0.0754267 9.78197 0.117882C8.05871 0.336721 6.07441 1.15212 4.56501 2.26169C3.90825 2.74445 2.8102 3.81701 2.31596 4.45853C1.2286 5.86985 0.44375 7.63695 0.141038 9.35515C0.00443739 10.1309 -0.0442754 11.7167 0.0456611 12.4617C0.208827 13.8132 0.606787 15.1255 1.20203 16.2752C1.51825 16.8862 10.4532 31.0295 10.8535 31.553C11.3093 32.149 12.0329 32.149 12.4863 31.553C12.7136 31.2541 21.5661 16.7911 21.8069 16.3251C22.273 15.423 22.6769 14.2376 22.8846 13.1617C23.0365 12.3751 23.0389 10.2081 22.8889 9.3866C22.5635 7.60593 21.7968 5.87617 20.7046 4.45853C20.2104 3.81701 19.1123 2.74445 18.4555 2.26169C17.012 1.20051 15.2116 0.437137 13.4425 0.136139C12.9391 0.0504791 10.7191 -0.0385572 10.4861 0.0175281ZM12.9989 1.99365C14.2095 2.17228 15.5417 2.65542 16.5522 3.28217C20.5891 5.78632 22.1678 10.6469 20.3241 14.8959C20.1211 15.3637 18.8124 17.5564 15.8595 22.376C12.4859 27.8823 11.6667 29.1787 11.6024 29.1127C11.4285 28.9344 3.20323 15.9261 2.92894 15.3955C2.56657 14.6945 2.20894 13.6541 2.06024 12.8682C1.92479 12.1526 1.90911 10.581 2.0299 9.83572C2.47074 7.11617 4.05241 4.78084 6.4684 3.28217C7.71573 2.50842 8.955 2.11376 10.8062 1.90073C11.1518 1.86097 12.4818 1.91736 12.9989 1.99365ZM10.7101 5.6502C10.6397 5.66608 10.4237 5.71004 10.23 5.74793C9.70669 5.85041 8.89867 6.18585 8.36872 6.52074C7.18245 7.2703 6.29442 8.4751 5.90587 9.86192C5.76875 10.3514 5.71684 11.5469 5.80793 12.1179C6.15468 14.2917 7.79063 16.0702 10.0195 16.6963C10.4399 16.8144 10.6737 16.8364 11.5103 16.8364C12.3469 16.8364 12.5807 16.8144 13.0011 16.6963C15.0489 16.121 16.546 14.6386 17.1194 12.6181C17.2788 12.0565 17.283 10.442 17.1264 9.89455C16.5346 7.82433 15.0172 6.33404 12.9237 5.76693C12.5779 5.67327 10.9819 5.58911 10.7101 5.6502ZM12.3022 7.58417C14.313 8.00034 15.6596 9.98153 15.2592 11.9348C14.8965 13.704 13.3171 14.9919 11.5103 14.9919C9.74906 14.9919 8.12752 13.7067 7.76585 12.0241C7.49342 10.7564 7.86808 9.54454 8.82 8.61472C9.77044 7.6864 11.0155 7.31794 12.3022 7.58417Z" fill="#FF6060"/>
</svg>
