<svg width="27" height="27" viewBox="0 0 27 27" fill="none" xmlns="http://www.w3.org/2000/svg">
<path d="M5.34719 0.904311L5.34719 0.904311C6.09607 0.76176 6.90564 0.903052 7.55276 1.29035C7.69337 1.37449 7.83324 1.50393 8.0849 1.79522C8.33776 2.08789 8.71373 2.55648 9.326 3.33143C9.72568 3.8373 10.1059 4.32825 10.3967 4.71188C10.542 4.90364 10.6653 5.06904 10.7577 5.19629C10.847 5.31947 10.9142 5.41606 10.9404 5.46435M5.34719 0.904311L10.8085 5.53583M5.34719 0.904311C3.38336 1.27819 1.92639 2.20575 1.26682 3.55288L1.40153 3.61885M5.34719 0.904311L1.26681 3.55289M10.9404 5.46435L10.8085 5.53583M10.9404 5.46435C10.9404 5.46434 10.9404 5.46433 10.9404 5.46432L10.8085 5.53583M10.9404 5.46435C11.4324 6.37152 11.3726 7.61545 10.7986 8.49492M10.8085 5.53583C11.2735 6.39327 11.2177 7.57834 10.6729 8.41293M10.7986 8.49492C10.7986 8.49491 10.7986 8.49491 10.7986 8.4949L10.6729 8.41293M10.7986 8.49492C10.7421 8.58151 10.604 8.74776 10.4353 8.93953C10.2635 9.13473 10.0519 9.36528 9.84168 9.58448L9.73342 9.48064M10.7986 8.49492L10.6729 8.41293M10.6729 8.41293L9.73342 9.48064M9.73342 9.48064L8.97409 10.2723M9.73342 9.48064L9.2083 3.42442C7.98273 1.87324 7.71299 1.56102 7.47573 1.41906C6.86062 1.05092 6.08851 0.915893 5.37524 1.05166C3.43928 1.42024 2.03326 2.32859 1.40153 3.61885M9.73342 9.48064L9.84168 9.58448L9.13292 10.3234M9.73342 9.48064L15.1703 17.1944M8.97409 10.2723L9.00968 10.5214C9.12045 11.2967 9.64937 12.3959 10.3879 13.3855C10.884 14.0503 12.0474 15.2429 12.7254 15.7817C13.4155 16.33 14.4483 17.0019 15.1034 17.3286M8.97409 10.2723L9.08234 10.3761L9.13292 10.3234M8.97409 10.2723L9.12258 10.2511L9.13292 10.3234M15.1034 17.3286C15.6165 17.5846 16.5671 17.9486 16.7222 17.9486C16.7516 17.9486 17.1207 17.622 17.5426 17.2229C18.712 16.1164 19.075 15.9202 20.0304 15.8789C20.6437 15.8523 21.0894 15.954 21.5537 16.2265M15.1034 17.3286L15.1703 17.1944C15.1703 17.1944 15.1703 17.1944 15.1703 17.1944M15.1034 17.3286L15.1703 17.1944M21.5537 16.2265C21.6921 16.3077 22.6186 17.0163 23.6126 17.801M21.5537 16.2265L21.6296 16.0971C21.6296 16.0971 21.6296 16.0971 21.6296 16.0971M21.5537 16.2265L21.6296 16.0971M23.6126 17.801C25.5819 19.3558 25.6499 19.4261 25.8814 20.147C26.0831 20.7752 26.0303 21.4854 25.7017 22.5651C25.4055 23.5381 24.9586 24.301 24.3407 24.8885M23.6126 17.801L23.7055 17.6832C24.6858 18.4572 25.2056 18.8712 25.5065 19.1824C25.6601 19.3412 25.7611 19.4775 25.8389 19.625C25.9154 19.7702 25.9665 19.9213 26.0242 20.1011C26.2398 20.7726 26.1771 21.5184 25.8452 22.6087C25.5429 23.6018 25.0841 24.3887 24.4441 24.9972L24.3407 24.8885M23.6126 17.801L23.7055 17.6832C23.208 17.2905 22.7273 16.9167 22.3534 16.6308C22.1665 16.4879 22.006 16.3666 21.8832 16.2758C21.7638 16.1876 21.6727 16.1224 21.6296 16.0971M24.3407 24.8885C23.8808 25.3257 23.5416 25.5409 23.0027 25.7373C22.3724 25.9672 21.8279 26.029 20.7938 25.9884C16.2278 25.8091 12.0232 24.2188 8.45052 21.3196M24.3407 24.8885L24.4441 24.9972C23.9708 25.4471 23.6142 25.6741 23.0541 25.8783C22.3982 26.1174 21.8321 26.1793 20.788 26.1383C16.1893 25.9577 11.9536 24.3555 8.356 21.4361L8.45052 21.3196M8.45052 21.3196C7.70823 20.7172 6.23974 19.2464 5.6273 18.4918C2.66365 14.8405 1.01775 10.3473 1.00028 5.86037C0.995521 4.63783 1.04901 4.33875 1.40153 3.61885M8.45052 21.3196L8.356 21.4361C7.60552 20.8271 6.1297 19.3488 5.51084 18.5864C2.52674 14.9098 0.867892 10.3839 0.850278 5.86095C0.847903 5.25043 0.85973 4.85735 0.919272 4.52469C0.979682 4.18719 1.08802 3.91802 1.26681 3.55289M1.40153 3.61885L1.26681 3.55289M1.26681 3.55289L16.6874 17.7921C16.6937 17.7871 16.7008 17.7814 16.7088 17.7749C16.7518 17.74 16.8121 17.6883 16.8858 17.6231C17.033 17.4929 17.2294 17.3127 17.4395 17.1139C18.0231 16.5617 18.4194 16.2226 18.7954 16.0195C19.1799 15.8118 19.535 15.7502 20.0239 15.729C20.6619 15.7013 21.137 15.808 21.6296 16.0971M15.1703 17.1944C14.5262 16.8731 13.5022 16.2074 12.8188 15.6642L12.8188 15.6642C12.1504 15.1332 10.9962 13.9498 10.5081 13.2958C9.77677 12.3158 9.26392 11.2403 9.15817 10.5001L9.13292 10.3234M8.71105 8.6573L8.71105 8.65729C9.22495 8.11504 9.4986 7.80706 9.64706 7.56243C9.78645 7.33274 9.81454 7.16075 9.81454 6.87439C9.81454 6.60117 9.78678 6.46832 9.69442 6.26753L9.69441 6.26752C9.69432 6.26733 9.69356 6.26576 9.69176 6.2625C9.69079 6.26072 9.68962 6.25867 9.68826 6.25631C9.68692 6.254 9.68538 6.25139 9.68363 6.24849C9.67654 6.2367 9.66695 6.22159 9.65473 6.20303C9.63029 6.16593 9.59714 6.11785 9.55607 6.0599C9.47403 5.94415 9.36263 5.79215 9.23105 5.61578C8.96802 5.26323 8.62621 4.81582 8.28148 4.37138C7.93675 3.92693 7.58961 3.48612 7.31592 3.14671C7.179 2.97692 7.06099 2.83316 6.97109 2.72723C6.92607 2.67418 6.88879 2.63145 6.86008 2.6C6.84571 2.58425 6.83414 2.57206 6.82527 2.56317C6.81754 2.55542 6.81386 2.55222 6.81335 2.55175C6.81331 2.55171 6.81329 2.55169 6.81329 2.55169C6.81329 2.55168 6.81341 2.55177 6.81364 2.55195L8.71105 8.6573ZM8.71105 8.6573C8.46906 8.91267 8.24049 9.1607 8.06703 9.35482C7.98038 9.45179 7.90689 9.53596 7.85215 9.60117C7.82484 9.63371 7.80149 9.66236 7.78324 9.68597C7.76725 9.70667 7.74863 9.73173 7.73682 9.75393M8.71105 8.6573L20.7742 17.3102M20.7742 17.3102L20.7742 17.3102C20.67 17.2618 20.5895 17.2336 20.5 17.2165C20.4086 17.1991 20.3021 17.192 20.1442 17.1918C19.8654 17.1915 19.682 17.2253 19.4335 17.3767C19.1714 17.5363 18.8398 17.8251 18.2765 18.3517C18.0243 18.5874 17.7815 18.8071 17.5932 18.9713C17.4992 19.0532 17.4179 19.1221 17.3554 19.1725C17.3243 19.1976 17.2966 19.2191 17.2738 19.2356C17.2567 19.2479 17.2267 19.2693 17.197 19.2805C17.1375 19.3031 17.0677 19.3098 17.0003 19.3099C16.9303 19.3101 16.8505 19.3032 16.7643 19.2909C16.5917 19.2664 16.3828 19.2191 16.1564 19.1553C15.7033 19.0274 15.1678 18.8297 14.6913 18.6019C13.1001 17.8411 11.5593 16.6592 10.3299 15.3398C9.10201 14.0221 8.17411 12.5557 7.82412 11.2211C7.74774 10.9299 7.69773 10.6252 7.67885 10.3687C7.66943 10.2405 7.66755 10.1215 7.67484 10.0206C7.68176 9.92499 7.69794 9.82698 7.73682 9.75393M20.7742 17.3102C20.7988 17.3216 20.873 17.3685 20.9986 17.4561C21.1189 17.5401 21.2755 17.6536 21.4578 17.7889C21.8222 18.0593 22.2866 18.4146 22.7626 18.7895C23.7318 19.5525 24.2043 19.9267 24.4444 20.1876C24.5603 20.3136 24.6129 20.404 24.642 20.4911C24.6727 20.583 24.6812 20.6816 24.692 20.8407C24.7118 21.132 24.6441 21.5609 24.514 22.0115C24.3846 22.4597 24.1983 22.9128 23.9923 23.2508C23.5815 23.925 23.1655 24.2802 22.5261 24.5164C22.2933 24.6023 21.9293 24.6554 21.4663 24.6721C21.0068 24.6887 20.4618 24.6692 19.8745 24.6167C18.6994 24.5118 17.3644 24.2761 16.2186 23.9415C13.7173 23.211 11.4649 22.0479 9.47926 20.4623C8.73699 19.8695 7.49169 18.6573 6.85029 17.9028C4.58523 15.2387 3.07324 11.9469 2.53521 8.50881C2.39683 7.62449 2.32 6.77685 2.30629 6.06993C2.29246 5.3569 2.34344 4.80527 2.44953 4.50152L2.44954 4.50151M20.7742 17.3102L2.44954 4.50151M7.73682 9.75393L7.86923 9.8244M7.73682 9.75393C7.73681 9.75394 7.73681 9.75395 7.7368 9.75396L7.86923 9.8244M7.86923 9.8244C7.77551 10.0005 7.82087 10.6175 7.96921 11.183L7.86923 9.8244ZM2.44954 4.50151C2.83785 3.38954 3.96871 2.62258 5.7754 2.33686C5.84342 2.3261 5.96996 2.32896 6.11956 2.3474C6.26597 2.36544 6.41863 2.39641 6.53433 2.4336L2.44954 4.50151Z" fill="#FF6060" stroke="#FF6060" stroke-width="0.3"/>
</svg>
