<svg width="40" height="34" viewBox="0 0 40 34" fill="none" xmlns="http://www.w3.org/2000/svg">
<path fill-rule="evenodd" clip-rule="evenodd" d="M36.3668 0.0924872C36.152 0.153369 35.7828 0.280008 35.5465 0.374005C35.1613 0.527073 33.0238 1.34913 20.8185 6.03786C5.1637 12.0517 1.74798 13.3729 1.42303 13.5401C-0.465744 14.5121 -0.476057 16.4807 1.40256 17.447C1.59594 17.5465 3.42424 18.1099 5.46545 18.699L9.17674 19.77L11.1337 25.3905C12.21 28.4817 13.1915 31.1972 13.3147 31.4248C13.5948 31.9419 14.2159 32.5401 14.7697 32.8261C15.3349 33.1179 16.3277 33.1837 16.9923 32.9733C17.7066 32.7471 18.1907 32.3665 20.527 30.1939C21.7417 29.0642 22.7722 28.14 22.8169 28.14C22.8616 28.14 24.241 29.2284 25.8822 30.5587C27.5233 31.889 29.0122 33.0928 29.1906 33.2336C29.3691 33.3745 29.7558 33.6046 30.0501 33.7449C30.5477 33.9822 30.6423 34 31.4054 34C32.1544 34 32.2622 33.9807 32.6443 33.7782C32.8744 33.6561 33.2229 33.3906 33.4187 33.1883C34.0209 32.5657 34.2412 31.9694 34.6882 29.7525C39.1456 7.64098 40 3.30897 40 2.82066C40 1.59824 39.43 0.636486 38.4413 0.190653C37.9865 -0.0144876 36.9222 -0.0648289 36.3668 0.0924872ZM37.5834 2.50792C37.6367 2.60813 37.652 2.80627 37.6214 2.99953C37.4103 4.33452 31.9869 31.0044 31.8738 31.2637C31.6968 31.6698 31.441 31.7633 31.0375 31.5696C30.8872 31.4974 28.1836 29.3471 25.0297 26.791L19.2951 22.1436L19.4318 21.9647C19.5069 21.8662 22.2581 18.914 25.5455 15.4041C29.8922 10.7632 31.5628 8.92901 31.6698 8.67998C31.8573 8.24398 31.7945 7.86075 31.4758 7.49539C31.2056 7.18555 30.7961 7.02368 30.4324 7.08314C30.2934 7.10579 25.6371 9.46058 20.0854 12.3159L9.99104 17.5074L6.51766 16.5114C4.60732 15.9636 3.0442 15.4977 3.04412 15.476C3.04389 15.445 35.6654 2.87918 36.8461 2.45545C37.2789 2.3001 37.4806 2.3145 37.5834 2.50792ZM23.7753 13.8045C19.2164 18.6495 16.5821 21.5045 16.4737 21.7179C16.4046 21.854 16.0049 23.3812 15.5854 25.1116C15.1659 26.8421 14.8003 28.3 14.773 28.3515C14.7314 28.4297 11.6365 19.686 11.6216 19.4483C11.6179 19.3899 24.8332 12.5105 24.9872 12.4906C25.0026 12.4887 24.4572 13.0799 23.7753 13.8045ZM19.6637 25.5251L20.9311 26.5538L19.1168 28.2372C18.1189 29.1631 17.1749 30.0331 17.0188 30.1708L16.735 30.421L17.3086 28.1202C17.6241 26.8549 17.9572 25.4905 18.0488 25.0884C18.1682 24.5646 18.2411 24.3769 18.3059 24.4268C18.3557 24.465 18.9667 24.9593 19.6637 25.5251Z" fill="#FF6060"/>
</svg>
