<svg width="38" height="27" viewBox="0 0 38 27" fill="none" xmlns="http://www.w3.org/2000/svg">
<path fill-rule="evenodd" clip-rule="evenodd" d="M6.63505 0.0704254C5.49669 0.191843 4.21674 0.669633 3.22598 1.34291C2.96504 1.52023 2.48138 1.93814 2.15135 2.27162C1.16417 3.26885 0.535346 4.38217 0.161519 5.7946C0.00111545 6.40057 0 6.45482 0 13.4963C0 20.5377 0.00111545 20.592 0.161519 21.198C1.00667 24.391 3.57185 26.6134 6.77508 26.9277C7.75959 27.0243 30.2438 27.024 31.2287 26.9274C33.043 26.7494 34.5668 26.0215 35.8461 24.7218C36.8413 23.7107 37.4657 22.6065 37.8385 21.198C37.9989 20.592 38 20.5377 38 13.4963C38 6.45482 37.9989 6.40057 37.8385 5.7946C37.4647 4.38217 36.8358 3.26885 35.8487 2.27162C34.5699 0.97978 33.0679 0.256229 31.2701 0.0660731C30.4112 -0.0247273 7.48942 -0.0206752 6.63505 0.0704254ZM32.1252 2.55701C32.9526 2.84134 33.5918 3.23853 34.2118 3.85343C35.0748 4.7095 35.5764 5.72812 35.738 6.95287C35.7868 7.32283 35.8047 9.82337 35.7878 13.909C35.7637 19.7427 35.7502 20.3253 35.63 20.7297C35.0941 22.5332 33.8549 23.8442 32.1268 24.4358L31.5303 24.64H19H6.46967L5.87319 24.4358C4.14505 23.8442 2.90592 22.5332 2.36998 20.7297C2.24981 20.3253 2.23627 19.7427 2.21218 13.909C2.1953 9.82337 2.21322 7.32283 2.262 6.95287C2.56184 4.68053 4.16423 2.92539 6.3953 2.42561C6.75835 2.34434 9.14097 2.3282 19.1859 2.33916L31.5303 2.35259L32.1252 2.55701ZM14.7601 6.28132C14.6176 6.35787 14.4262 6.552 14.3348 6.71281L14.1688 7.00518L14.1675 13.4099C14.1662 20.5472 14.1375 20.1469 14.6776 20.5173C14.8663 20.6466 15.0462 20.7003 15.2917 20.7003C15.6879 20.7003 15.3772 20.8815 21.9746 16.8031C24.1218 15.4757 25.9371 14.3153 26.0086 14.2244C26.3848 13.7457 26.3396 13.1146 25.8992 12.6996C25.7003 12.512 16.9413 6.91302 15.9139 6.31667C15.5506 6.1058 15.112 6.09237 14.7601 6.28132ZM19.8071 11.4702C21.5304 12.5639 22.9397 13.4756 22.9388 13.4963C22.9374 13.5319 16.6795 17.4086 16.5388 17.461C16.4994 17.4757 16.4716 15.8089 16.4716 13.4238C16.4716 10.0202 16.488 9.37124 16.5727 9.42152C16.6283 9.45454 18.0838 10.3764 19.8071 11.4702Z" fill="#FF6060"/>
</svg>
