<svg width="636" height="432" viewBox="0 0 636 432" fill="none" xmlns="http://www.w3.org/2000/svg">
<mask id="mask0_427_2101" style="mask-type:alpha" maskUnits="userSpaceOnUse" x="0" y="0" width="636" height="432">
<rect width="636" height="432" fill="#D9D9D9"/>
</mask>
<g mask="url(#mask0_427_2101)">
<circle cx="348.007" cy="265.487" r="166.013" fill="#FF6060"/>
<mask id="mask1_427_2101" style="mask-type:alpha" maskUnits="userSpaceOnUse" x="94" y="-62" width="447" height="494">
<path d="M514.02 265.487C514.02 357.173 439.693 431.5 348.007 431.5C256.32 431.5 181.994 357.173 181.994 265.487C-13.8497 336.172 166.18 -62 257.867 -62C349.553 -62 626.857 151.353 514.02 265.487Z" fill="#FF6060"/>
</mask>
<g mask="url(#mask1_427_2101)">
<path d="M409.976 578.548H452.457C456.083 559.383 459.469 536.192 461.977 517.494C464.611 497.987 466.287 483.393 466.287 483.393C466.287 477.499 466.184 470.316 465.99 462.506C465.249 427.926 463.186 381.204 463.186 381.204C406.852 381.204 393.125 431.689 393.125 431.689C393.125 431.689 397.184 464.365 401.368 499.241C405.313 532.453 409.372 567.717 409.976 578.548Z" fill="url(#paint0_linear_427_2101)"/>
<path d="M290.651 578.548H338.969C343.833 568.154 347.855 557.387 350.998 546.35C352.081 542.554 353.198 538.541 354.338 534.356C357.599 522.476 361.054 509.376 364.223 497.211C370.574 472.824 375.704 452.165 375.704 452.165L393.103 431.643C393.103 392.4 337.236 360.955 337.236 360.955C337.236 360.955 323.726 369.973 310.364 404.656C305.459 417.661 301.478 430.995 298.45 444.56C284.939 503.744 290.97 555.255 290.651 578.548Z" fill="url(#paint1_linear_427_2101)"/>
<path d="M409.976 578.548H452.457C456.083 559.383 459.469 536.192 461.977 517.494C464.611 497.987 466.287 483.393 466.287 483.393C466.287 477.499 466.184 470.316 465.99 462.506C465.249 427.926 463.186 381.204 463.186 381.204C406.852 381.204 393.125 431.689 393.125 431.689C393.125 431.689 397.184 464.365 401.368 499.241C405.313 532.453 409.372 567.717 409.976 578.548Z" fill="#FFC9A4"/>
<path d="M290.651 578.548H338.969C343.833 568.154 347.855 557.387 350.998 546.35C352.081 542.554 353.198 538.541 354.338 534.356C357.599 522.476 361.054 509.376 364.223 497.211C370.574 472.824 375.704 452.165 375.704 452.165L393.103 431.643C393.103 392.4 337.236 360.955 337.236 360.955C337.236 360.955 323.726 369.973 310.364 404.656C305.459 417.661 301.478 430.995 298.45 444.56C284.939 503.744 290.97 555.255 290.651 578.548Z" fill="#FFC9A4"/>
<path fill-rule="evenodd" clip-rule="evenodd" d="M290.651 578.547H294.55C294.961 566.451 297.104 552.484 304.162 545.427C317.843 531.745 353.05 534.265 354.327 534.356C357.588 522.476 361.042 509.376 364.212 497.211L361.521 463.235L319.986 389.663L310.398 404.758C305.494 417.763 301.512 431.098 298.484 444.663C284.939 503.744 290.97 555.255 290.651 578.547Z" fill="#F2B186"/>
<path d="M369.616 144.389C370.756 147.582 376.206 153.419 381.541 158.527C387.025 163.771 392.304 168.241 392.304 168.241C392.304 168.241 417.877 199.024 420.534 197.986C423.19 196.949 430.612 185.753 430.612 185.753C430.612 185.753 403.671 157.079 403.671 154.764C403.671 152.45 412.598 117.072 412.598 117.072C412.598 117.072 407.137 77.6123 405.404 77.6123C403.892 77.767 402.411 78.1515 401.015 78.7524L372.717 99.9587C372.717 99.9587 370.562 115.077 369.547 127.858C369.012 135.314 368.795 141.984 369.616 144.389Z" fill="#FFC9A4"/>
<path fill-rule="evenodd" clip-rule="evenodd" d="M369.616 144.389C370.756 147.581 376.206 153.419 381.542 158.527L375.328 152.233L394.915 147.855L407.092 119.911L401.973 102.011L383.833 118.44L369.593 127.846C369.012 135.314 368.795 141.983 369.616 144.389Z" fill="#FDA68F"/>
<path d="M403.671 154.765C403.671 154.765 396.534 152.804 395.325 145.644C394.117 138.484 405.951 121.417 405.951 121.417V119.068C405.951 119.068 402.132 108.214 403.112 100.986L404.914 96.1631L414.822 122.956C414.822 122.956 405.404 144.082 403.671 154.765Z" fill="#F2B186"/>
<path d="M154.463 210.71C156.265 231.46 168.931 245.928 168.931 245.928C175.977 250.922 184.893 255.049 192.099 257.979C199.304 260.91 204.731 262.54 204.731 262.54L212.131 270.794L228.412 288.238L235.743 262.244L212.347 244.572C212.074 240.205 211.72 236.066 211.333 232.338C210.193 220.811 208.631 213.093 208.631 213.093C203.945 210.949 191.802 212.91 191.802 212.91C173.036 217.357 154.463 210.71 154.463 210.71Z" fill="#FFC9A4"/>
<path fill-rule="evenodd" clip-rule="evenodd" d="M319.77 541.847L318.994 566.588C318.641 570.603 318.984 574.65 320.009 578.548H393.285C425.812 565.003 459.309 547.525 459.309 547.525C480.664 479.996 470.71 398.488 468.248 381.786C465.785 365.083 449.276 348.893 437.807 337.492C426.827 326.615 417.843 319.398 417.843 319.398L336.894 315.214L337.613 322.146C337.613 322.146 307.148 388.079 301.129 409.16C291.369 443.671 291.369 508.077 291.369 508.077C291.369 479.996 305.575 457.114 305.575 457.114C316.11 480.554 319.77 541.847 319.77 541.847Z" fill="#2E2E2E"/>
<path fill-rule="evenodd" clip-rule="evenodd" d="M299.715 408.659C303.078 396.779 317.022 370.556 328.423 350.034C337.248 334.186 344.613 321.69 344.613 321.69L343.895 314.747L416.349 318.931C416.349 318.931 425.334 326.091 436.29 337.002C435.013 337.458 408.847 352.44 397.173 352.44C385.258 352.44 352.833 349.452 352.833 349.452C352.833 349.452 372.056 399.743 406.636 415.123C406.636 415.123 431.661 396.232 439.927 381.193C439.026 383.177 421.332 417.449 404.583 429.5C404.583 429.5 388.542 417.05 363.117 373.897C363.117 373.897 355.068 378.925 344.704 390.805L410.637 559.942L390.115 550.342L341.443 394.67C338.191 398.692 335.147 402.878 332.322 407.211C332.322 407.211 314.479 485.56 319.724 541.894C319.188 537.561 314.582 480.099 304.116 456.658C304.116 456.658 289.898 479.54 289.898 507.633C289.944 507.587 289.944 443.171 299.715 408.659Z" fill="#1D1D1D"/>
<path fill-rule="evenodd" clip-rule="evenodd" d="M440.703 364.775C440.703 364.775 425.505 386.689 404.583 394.624L393.125 392.8L404.583 400.78C404.583 400.78 424.479 391.078 440.703 364.775Z" fill="#1D1D1D"/>
<path fill-rule="evenodd" clip-rule="evenodd" d="M440.771 465.437L449.823 414.257L428.389 482.721L440.771 465.437Z" fill="#050505"/>
<path d="M305.621 126.034C305.621 126.034 310.968 152.257 308.836 169.929C308.836 169.929 340.281 198.934 353.403 198.934C366.526 198.934 359.811 173.908 359.811 173.908C359.811 173.908 346.266 169.347 340.588 163.647C334.911 157.946 333.577 141.905 333.577 141.905L305.621 126.034Z" fill="#FFC9A4"/>
<path fill-rule="evenodd" clip-rule="evenodd" d="M192.099 260.123C199.293 263.019 204.731 264.684 204.731 264.684L212.131 272.95L216.007 249.474L212.325 246.693C212.051 242.314 211.697 238.187 211.31 234.448L197.628 226.011L192.099 260.123Z" fill="#F2B186"/>
<path fill-rule="evenodd" clip-rule="evenodd" d="M379.136 171.034L380.869 189.641L381.279 194.11L382.1 202.844L414.639 240.832C414.639 240.832 417.421 242.771 421.571 245.621C431.969 252.724 451.009 265.539 457.223 268.309C465.922 272.209 480.983 275.082 480.983 275.082L423.555 201.92C418.288 199.526 411.344 195.079 404.561 190.393C391.632 181.295 379.136 171.034 379.136 171.034Z" fill="#1D1D1D"/>
<path fill-rule="evenodd" clip-rule="evenodd" d="M408.494 187.783C408.768 188.148 411.492 191.773 415.335 197.041C424.33 209.297 439.437 230.389 443.689 239.693C443.689 239.693 455.82 261.207 471.383 271.285C471.383 271.285 486.341 278.001 493.524 278.001C496.261 278.001 503.192 251.174 491.951 229.808C490.666 227.311 489.138 224.948 487.39 222.75C487.39 222.75 435.424 192.514 424.433 178.548C424.433 178.548 424.649 190.998 421.742 193.894C418.835 196.79 409.075 188.262 408.494 187.783Z" fill="#161616"/>
<path fill-rule="evenodd" clip-rule="evenodd" d="M116.36 189.525H110.66C110.66 189.525 136.472 230.467 146.38 264.363H196.967C196.967 264.363 179.489 221.335 154.463 191.612L116.36 189.525Z" fill="#161616"/>
<path fill-rule="evenodd" clip-rule="evenodd" d="M165.751 185.855C165.751 185.855 197.047 220.196 208.71 244.617L149.766 246.544C149.766 246.544 128.126 200.221 116.36 184.578L165.751 185.855Z" fill="white"/>
<path fill-rule="evenodd" clip-rule="evenodd" d="M201.915 242.975L206.875 246.544L194.904 261.217L149.766 258.618L116.395 192.662V184.578L152.901 246.544L201.915 242.975Z" fill="#E5E5E5"/>
<path fill-rule="evenodd" clip-rule="evenodd" d="M116.36 184.578V192.696L149.766 258.618L194.903 261.217L206.875 246.544L152.149 248.824C152.149 248.824 133.462 206.377 116.36 184.578Z" fill="#ADADAD"/>
<g style="mix-blend-mode:multiply" opacity="0.3">
<path fill-rule="evenodd" clip-rule="evenodd" d="M152.115 248.848L149.766 258.619L194.903 261.218L206.875 246.545L152.115 248.848Z" fill="#592963"/>
</g>
<path d="M125.918 189.94L125.906 190.453L166.381 191.4L166.393 190.887L125.918 189.94Z" fill="#0A0A0A"/>
<path d="M173.036 198.454L173.047 197.941L132.573 196.573L132.55 197.086L173.036 198.454Z" fill="#0A0A0A"/>
<path d="M197.674 235.291H158.762V235.804H197.674V235.291Z" fill="#0A0A0A"/>
<path fill-rule="evenodd" clip-rule="evenodd" d="M201.117 231.21L174.666 212.865L169.616 203.676L186.273 210.425C186.273 210.425 198.084 226.284 201.117 231.21Z" fill="#E5E5E5"/>
<path d="M208.631 215.215C207.459 210.446 204.828 206.162 201.106 202.959C200.616 202.468 189.864 204.03 189.864 204.03L169.616 195.719C169.616 195.719 168.054 200.804 169.616 203.643C171.701 206.593 174.742 208.732 178.224 209.697C178.224 209.697 187.345 209.503 192.988 212.536L191.848 214.987C191.848 214.987 210.295 222.648 208.631 215.215Z" fill="#F2B186"/>
<path fill-rule="evenodd" clip-rule="evenodd" d="M333.896 144.424L335.709 153.602C335.709 153.602 315.107 151.026 305.997 127.801L305.655 126.034C305.655 126.034 314.821 137.002 333.896 144.424Z" fill="#FDA68F"/>
<path fill-rule="evenodd" clip-rule="evenodd" d="M218.162 279.345C219.234 280.884 221.674 284.316 225.003 288.888C239.152 308.156 269.764 347.354 284.734 347.354C287.915 347.354 300.798 330.867 304.116 309.114C307.434 287.36 304.116 257.546 304.116 257.546L307.912 250.512C307.912 250.512 309.748 252.689 312.712 256.6C319.872 266.074 323.213 277.361 333.235 301.167L336.849 315.271L350.929 322.408C350.929 322.408 370.631 337.058 392.601 334.755C414.571 332.452 416.863 316.684 416.863 316.684C416.863 316.684 418.698 306.423 417.558 305.226C416.418 304.029 408.528 304.428 408.528 304.428C408.893 303.368 419.77 272.162 421.503 245.7C421.904 240.439 421.801 235.151 421.195 229.91L400.673 212.34L396.511 208.794L395.303 206.879L385.874 191.989L379.033 171.113C379.033 171.113 363.072 170.338 350.941 167.533C347.39 166.848 343.961 165.633 340.771 163.931L340.862 164.033L351.67 171.398C355.654 178.336 357.312 186.367 356.402 194.315H356.311C354.395 193.779 323.635 184.909 308.79 170.042L309.281 162.768V162.597L304.298 167.625C299.51 172.493 291.848 180.246 284.209 187.885C279.067 193.027 275.556 196.436 273.116 198.91C269.638 202.455 268.362 204.097 267.563 206.377C266.207 210.22 270.459 238.13 271.554 248.208C272.648 258.287 269.57 279.824 269.57 279.824C269.57 279.824 266.355 277.988 264.519 279.824C264.519 279.824 241.819 269.563 230.224 260.727C228.863 259.718 227.568 258.621 226.348 257.443C226.348 257.443 229.324 281.033 226.348 283.997C224.091 286.186 219.838 281.386 218.162 279.345Z" fill="#2E2E2E"/>
<path fill-rule="evenodd" clip-rule="evenodd" d="M301.551 172.174C301.551 172.174 328.549 197.986 356.869 201.634L356.482 194.166H356.39C354.623 193.562 326.132 183.655 309.326 166.804V162.574V159.153L304.344 167.419L301.551 172.174Z" fill="url(#paint2_linear_427_2101)"/>
<path fill-rule="evenodd" clip-rule="evenodd" d="M339.106 161.73C339.616 162.486 340.201 163.189 340.85 163.828L340.942 163.931C343.012 165.872 345.36 167.493 347.908 168.742C355.832 179.106 356.482 194.213 356.482 194.213L366.56 200.369C366.56 179.323 351.043 167.454 351.043 167.454L339.106 161.73Z" fill="url(#paint3_linear_427_2101)"/>
<path fill-rule="evenodd" clip-rule="evenodd" d="M424.49 178.559L430.065 184.259C430.065 184.259 426.018 198.545 424.216 200.358C422.415 202.171 414.046 195.307 414.046 195.307L408.471 187.816C408.471 187.816 416.007 193.05 420.431 193.05C420.431 193.004 424.49 189.207 424.49 178.559Z" fill="url(#paint4_linear_427_2101)"/>
<path d="M364.041 135.279L396.785 142.485L409.908 74.3285L380.23 69.6426L364.041 135.279Z" fill="#050505"/>
<path d="M375.012 112.952L375.662 109.072L377.688 109.411L377.594 109.971L376.016 109.707L375.853 110.677L377.139 110.892L377.045 111.452L375.759 111.237L375.553 112.467L377.184 112.74L377.09 113.3L375.012 112.952Z" fill="white"/>
<path d="M377.618 113.388L378.268 109.509L379.272 109.677C379.731 109.754 380.073 109.997 380.3 110.408C380.53 110.815 380.597 111.304 380.501 111.877C380.405 112.45 380.182 112.893 379.831 113.206C379.483 113.517 379.081 113.633 378.622 113.557L377.618 113.388ZM378.159 112.904L378.675 112.99C379.031 113.05 379.329 112.972 379.571 112.758C379.814 112.544 379.97 112.225 380.041 111.8C380.113 111.375 380.069 111.022 379.91 110.741C379.75 110.46 379.493 110.289 379.138 110.23L378.621 110.143L378.159 112.904Z" fill="white"/>
<path d="M382.863 113.885C382.591 114.144 382.279 114.243 381.926 114.184C381.574 114.125 381.311 113.929 381.138 113.596C380.969 113.26 380.93 112.819 381.022 112.272L381.397 110.033L381.844 110.108L381.465 112.369C381.405 112.731 381.426 113.02 381.529 113.235C381.633 113.449 381.797 113.576 382.022 113.613C382.25 113.652 382.448 113.586 382.615 113.417C382.783 113.247 382.897 112.981 382.958 112.619L383.337 110.358L383.784 110.433L383.409 112.672C383.318 113.219 383.136 113.623 382.863 113.885Z" fill="white"/>
<path d="M385.169 114.728C384.749 114.657 384.428 114.41 384.206 113.985C383.988 113.557 383.928 113.051 384.025 112.468C384.123 111.884 384.346 111.427 384.694 111.098C385.042 110.765 385.431 110.635 385.859 110.707C386.198 110.763 386.473 110.923 386.682 111.186L386.581 111.79C386.364 111.503 386.101 111.334 385.792 111.282C385.48 111.23 385.201 111.322 384.956 111.558C384.713 111.791 384.556 112.122 384.484 112.55C384.412 112.979 384.452 113.342 384.602 113.641C384.756 113.937 384.977 114.109 385.265 114.157C385.555 114.205 385.802 114.135 386.007 113.945L386.243 112.532L386.691 112.607L386.412 114.269C386.267 114.435 386.083 114.564 385.858 114.655C385.635 114.743 385.405 114.767 385.169 114.728Z" fill="white"/>
<path d="M386.688 114.908L388.586 111.215L389.017 111.287L389.608 115.397L389.128 115.317L388.98 114.301L387.63 114.074L387.163 114.988L386.688 114.908ZM387.875 113.563L388.916 113.737L388.668 112.02L387.875 113.563Z" fill="white"/>
<path d="M390.075 111.487L392.406 111.877L392.312 112.437L391.369 112.279L390.812 115.599L390.365 115.524L390.921 112.204L389.982 112.047L390.075 111.487Z" fill="white"/>
<path d="M392.243 115.839L392.893 111.959L394.918 112.298L394.824 112.858L393.246 112.594L393.084 113.564L394.369 113.779L394.275 114.339L392.99 114.123L392.784 115.354L394.415 115.627L394.321 116.187L392.243 115.839Z" fill="white"/>
<path d="M394.848 116.275L395.498 112.396L395.95 112.471L395.394 115.791L396.907 116.045L396.813 116.604L394.848 116.275Z" fill="white"/>
<path d="M397.683 116.75L397.978 114.993L397.231 112.686L397.752 112.773L398.303 114.478L399.379 113.046L399.883 113.13L398.428 115.052L398.131 116.825L397.683 116.75Z" fill="white"/>
<path d="M424.49 178.559C424.49 178.559 424.148 190.587 418.162 191.613C414.571 192.217 408.471 187.771 408.471 187.771C408.471 187.771 415.107 193.004 420.431 193.004C420.431 193.004 424.194 193.004 424.49 178.559Z" fill="#A64A4C"/>
<path fill-rule="evenodd" clip-rule="evenodd" d="M273.127 198.922L301.551 201.681L351.716 217.7L384.996 225.943C367.518 220.459 344.852 205.648 344.852 205.648L382.089 202.844L396.523 208.715L381.553 194.304L381.302 194.11L369.604 184.59L380.892 189.641L385.92 191.921L395.348 206.811L400.718 212.273L404.583 190.416C391.654 181.375 379.159 171.034 379.159 171.034C379.159 171.034 363.197 170.259 351.066 167.454L339.152 161.754C339.662 162.509 340.246 163.212 340.896 163.852L340.987 163.954C343.058 165.895 345.405 167.517 347.954 168.765C355.877 179.129 356.527 194.236 356.527 194.236H356.436C354.669 193.632 326.177 183.724 309.372 166.873V162.643V159.223L304.389 167.489C299.601 172.357 291.939 180.11 284.301 187.749C279.159 192.89 275.647 196.299 273.207 198.774L273.127 198.922Z" fill="#1D1D1D"/>
<path fill-rule="evenodd" clip-rule="evenodd" d="M343.678 309.526C349.145 314.087 355.121 318.001 361.487 321.189C361.487 321.189 349.436 318.145 341.33 312.068L350.952 322.386C350.952 322.386 370.653 337.037 392.624 334.734C414.594 332.431 416.885 316.663 416.885 316.663C416.885 316.663 418.721 306.402 417.581 305.205C417.581 305.205 409.098 318.647 401.175 323.071C393.251 327.494 378.121 326.742 378.121 326.742C378.121 326.742 394.607 321.862 397.811 319.901C401.015 317.94 408.597 304.43 408.597 304.43C409.03 303.153 424.889 257.685 421.264 229.911L397.139 272.962L406.613 246.42L392.27 273.122L346.665 248.347L355.672 280.088L341.421 251.129V260.945L312.758 240.583L307.958 250.422C320.862 266.416 331.812 283.892 340.577 302.48C341.626 304.806 342.663 307.154 343.678 309.526Z" fill="#1D1D1D"/>
<path fill-rule="evenodd" clip-rule="evenodd" d="M218.162 279.345C219.234 280.884 221.674 284.316 225.003 288.888C227.397 289.344 229.563 288.888 230.281 286.448C232.163 279.892 230.281 260.659 230.281 260.659C228.92 259.649 227.625 258.552 226.405 257.375C226.405 257.375 229.381 280.964 226.405 283.928C224.091 286.186 219.838 281.386 218.162 279.345Z" fill="url(#paint5_linear_427_2101)"/>
<path fill-rule="evenodd" clip-rule="evenodd" d="M218.162 279.346C219.234 280.885 221.674 284.317 225.003 288.889C239.152 308.157 269.764 347.354 284.734 347.354C287.915 347.354 300.798 330.868 304.116 309.114C307.434 287.361 304.116 257.547 304.116 257.547L307.912 250.512C307.912 250.512 309.748 252.69 312.712 256.6V240.582L301.573 257.113C301.573 257.113 293.695 283.918 280.891 292.013C280.891 292.013 297.207 260.351 299.133 237.024C298.484 239.658 287.801 281.763 275.396 288.33C275.396 288.33 271.793 281.079 269.604 279.676C266.503 277.681 264.599 279.676 264.599 279.676C265.591 280.543 281.61 295.022 285.064 314.644L262.353 308.772C262.353 308.772 239.494 289.995 230.304 260.602L226.428 257.319C226.428 257.319 229.404 280.908 226.428 283.872C224.091 286.186 219.838 281.387 218.162 279.346Z" fill="#1D1D1D"/>
<path fill-rule="evenodd" clip-rule="evenodd" d="M415.38 197.041C424.376 209.297 439.483 230.39 443.735 239.693C443.735 239.693 455.866 261.207 471.429 271.286C471.429 271.286 486.387 278.001 493.57 278.001C496.306 278.001 503.238 251.174 491.997 229.808C497.629 250.33 489.511 262.587 489.511 262.587C467.222 259.657 437.259 224.176 436.336 223.07L447.84 229.831C434.329 220.892 417.353 197.668 417.353 197.668L415.38 197.041Z" fill="#1C1C1C"/>
<path style="mix-blend-mode:multiply" opacity="0.5" fill-rule="evenodd" clip-rule="evenodd" d="M224.136 335.689C224.133 335.637 224.133 335.584 224.136 335.531C224.147 335.583 224.147 335.637 224.136 335.689Z" fill="url(#paint6_linear_427_2101)"/>
<path d="M259.788 31.0618C259.788 31.0618 247.68 68.2184 234.443 67.1239C234.443 67.1239 231.547 58.3335 228.07 52.9293C224.592 47.5252 220.214 36.7738 220.91 34.7672C221.605 32.7606 258.876 13.5381 258.876 13.5381C258.876 13.5381 262.159 24.5631 259.788 31.0618Z" fill="white"/>
<path d="M255.854 12.3061C255.854 12.3061 218.458 30.7305 220.91 34.7666C223.361 38.8026 244.59 29.636 253.586 20.3782C262.581 11.1204 255.854 12.3061 255.854 12.3061Z" fill="#ADADAD"/>
<path d="M248.136 46.7607C248.136 46.7607 228.286 99.2064 228.663 114.621L242.8 114.769L255.079 57.1929L248.136 46.7607Z" fill="white"/>
<path d="M227.773 39.2023C227.773 39.2023 238.376 38.2673 246.539 31.9967C246.539 31.9967 239.345 45.1651 240.326 47.6962C241.306 50.2272 245.012 48.0952 245.012 48.0952L242.811 61.5031L240.018 69.6321C240.018 69.6321 239.494 84.7273 247.737 91.6251C255.98 98.5228 263.288 66.4512 263.288 66.4512C263.288 66.4512 264.371 19.7974 258.83 13.5381C258.876 13.5381 245.251 33.3078 227.773 39.2023Z" fill="#E5E5E5"/>
<path d="M390.879 34.6865C390.879 34.6865 410.387 50.9447 385.6 84.3047L375.773 46.6806L390.879 34.6865Z" fill="#0A0A0A"/>
<path d="M326.2 145.86C313.009 141.117 300.855 128.849 291.324 118.109C279.614 104.907 270.55 99.548 270.277 74.7845C270.185 59.8122 274.064 45.0831 281.518 32.0983C300.581 -2.10539 368.054 15.2701 380.812 33.5348C381.375 34.2975 381.846 35.1241 382.214 35.9975C382.214 35.9975 386.205 46.9427 385.52 57.7397C384.836 68.5366 379.979 86.562 380.242 96.4354C380.277 97.5394 380.449 98.6347 380.755 99.6962L382.305 108.327C385.805 127.652 367.666 147.627 367.666 147.627C366.093 150.101 363.847 152.974 357.234 153.567C354.415 153.564 351.606 153.227 348.866 152.564C341.198 150.727 333.633 148.489 326.2 145.86Z" fill="#FFC9A4"/>
<path d="M337.749 149.61C337.749 149.61 320.442 146.372 309.497 136.487C303.797 131.486 298.424 126.124 293.41 120.434C293.41 120.434 294.106 94.3598 298.928 82.5938C298.928 82.5938 293.832 133.329 337.749 149.61Z" fill="#F2B186"/>
<path d="M297.742 125.076L291.757 118.965L296.146 80.1098L303.569 63.7034L310.797 54.343L310.911 44.7432L338.16 47.4339L350.77 58.9719H364.029L380.379 55.2893L387.903 53.7501L384.13 66.8957L364.371 87.2469L365.785 82.5382L351.476 90.0858L353.757 80.4974L348.318 86.3348C348.318 86.3348 348.877 68.6401 333.873 65.0602C318.869 61.4802 323.714 65.3224 323.714 65.3224C320.777 70.3893 317.565 75.2916 314.092 80.0072C308.676 87.2241 294.117 122.009 297.742 125.076Z" fill="#F2B186"/>
<path d="M289.465 97.1085C289.465 97.1085 281.678 82.9367 270.699 85.4564C270.699 85.4564 264.782 88.2269 264.086 93.5399C263.311 99.5825 269.787 110.836 278.611 115.134C287.436 119.432 291.21 115.613 292.658 113.298C294.106 110.984 292.874 100.084 289.465 97.1085Z" fill="url(#paint7_linear_427_2101)"/>
<path style="mix-blend-mode:multiply" opacity="0.6" d="M267.335 92.7416C267.335 92.7416 270.676 89.9255 276.012 92.1487C281.347 94.372 288.2 103.915 288.884 107.506C288.884 107.506 283.947 105.408 282.123 106.001C280.299 106.594 278.851 108.715 274.609 107.21C270.368 105.705 264.747 98.9439 267.335 92.7416Z" fill="url(#paint8_linear_427_2101)"/>
<path style="mix-blend-mode:multiply" opacity="0.6" d="M275.978 92.1484C275.978 92.1484 273.766 92.8097 274.039 98.9208C274.067 100.635 274.515 102.316 275.344 103.817C276.173 105.318 277.357 106.592 278.794 107.529C278.794 107.529 275.886 104.177 275.578 100.688C275.271 97.1992 278.474 93.6648 278.474 93.6648L275.978 92.1484Z" fill="url(#paint9_linear_427_2101)"/>
<path style="mix-blend-mode:multiply" opacity="0.6" d="M281.085 95.7852C281.085 95.7852 278.703 99.844 280.766 102.854C282.83 105.864 288.416 106.046 288.416 106.046C286.533 102.258 284.059 98.7943 281.085 95.7852Z" fill="url(#paint10_linear_427_2101)"/>
<path opacity="0.18" d="M265.796 101.487C265.796 101.487 281.94 103.334 288.656 95.7866C288.656 95.7866 282.066 83.5759 272.181 85.2291C262.296 86.8823 262.9 96.4593 265.796 101.487Z" fill="black"/>
<path style="mix-blend-mode:multiply" opacity="0.6" d="M268.943 106.731C268.943 106.731 274.461 113.994 282.624 114.712C290.788 115.431 293.182 110.585 293.182 110.585C293.148 111.766 292.814 112.92 292.213 113.937C290.206 117.745 279.261 120.379 268.943 106.731Z" fill="url(#paint11_linear_427_2101)"/>
<path d="M286.649 110.722C286.649 110.722 287.915 114.952 284.483 130.469C281.051 145.986 255.113 171.274 249.264 183.257C243.416 195.24 249.264 216.412 256.481 226.228C256.481 226.228 251.453 214.987 253.813 205.877C256.173 196.767 260.973 173.748 276.536 152.77C285.781 140.451 290.333 125.24 289.374 109.867L286.649 110.722Z" fill="#0A0A0A"/>
<path d="M346.346 79.9145C346.346 79.9145 339.824 78.25 334.124 77.03C328.423 75.8101 325.003 76.0609 323.612 76.3459C320.271 77.1322 317.239 78.8943 314.901 81.4081C314.901 81.4081 318.755 78.0789 323.11 77.9877C327.466 77.8965 339.403 82.3544 341.227 82.7078C343.051 83.0613 346.346 79.9145 346.346 79.9145Z" fill="#161616"/>
<path d="M379.729 84.5327C379.059 83.3599 378.027 82.4359 376.787 81.899C373.469 80.9299 367.336 82.7883 364.554 90.0623C364.554 90.0623 365.192 84.2135 372.022 80.3028C376.856 77.5323 379.797 79.4021 379.797 79.4021C380.298 81.0793 380.274 82.8695 379.729 84.5327Z" fill="#161616"/>
<path d="M293.376 62.7229C293.376 62.7229 286.946 86.5287 288.222 95.7865C289.128 101.809 290.621 107.727 292.68 113.458C292.68 113.458 282.704 104.691 278.999 95.3532C275.293 86.0156 293.421 48.46 293.421 48.46L293.376 62.7229Z" fill="url(#paint12_linear_427_2101)"/>
<path d="M359.583 19.2154C359.583 19.2154 351.705 17.357 340.303 11.2346C328.902 5.11213 298.119 -0.0754287 285.144 6.6741C272.17 13.4236 269.41 22.1342 267.153 23.4339C264.896 24.7336 260.312 25.8282 258.18 28.1426C256.048 30.4571 253.62 37.332 253.46 44.5832C253.46 44.5832 249.949 47.4563 249.139 49.6567C248.33 51.8572 246.072 65.9263 249.88 78.9123C249.88 78.9123 251.784 98.5452 256.527 107.279C261.27 116.012 283.89 116.833 293.706 113.583C293.706 113.583 288.006 92.4797 293.627 77.8634C293.627 77.8634 295.633 54.4224 305.826 43.272C316.019 32.1216 349.926 19.3979 359.583 19.2154Z" fill="#161616"/>
<path style="mix-blend-mode:multiply" opacity="0.6" d="M345.035 19.1007C342.251 14.9722 338.152 11.9065 333.406 10.4015C325.083 7.52842 305.108 5.03155 292.988 6.00066C285.601 6.71828 278.72 10.0738 273.606 15.4523C279.114 9.90968 286.524 6.66934 294.334 6.3883C307.263 6.09187 323.247 9.72886 329.826 12.5678C336.404 15.4067 338.114 20.218 338.114 20.218L345.035 19.1007Z" fill="url(#paint13_linear_427_2101)"/>
<path style="mix-blend-mode:multiply" opacity="0.6" d="M336.564 20.5381C333.945 16.8071 329.995 14.2237 325.527 13.3211C317.638 11.4627 302.793 15.2251 289.385 13.7201C285.305 13.2014 281.159 13.772 277.371 15.374C273.582 16.976 270.285 19.5523 267.814 22.8411C270.298 20.2206 273.338 18.1896 276.71 16.8974C280.081 15.6051 283.7 15.0844 287.299 15.3733C299.84 16.2284 314.89 13.0132 321.993 13.7657C329.096 14.5182 334.796 20.9143 334.796 20.9143L336.564 20.5381Z" fill="url(#paint14_linear_427_2101)"/>
<path d="M304.481 38.6901C304.481 38.6901 290.891 41.4036 280.88 37.436C270.87 33.4683 268.635 21.9873 268.635 21.9873L267.153 23.4239C267.153 23.4239 272.261 42.2017 286.934 48.6548C286.934 48.6548 266.823 41.8938 265.899 24.0281C265.899 24.0281 266.526 47.1498 273.458 54.8114C277.895 59.5463 283.597 62.9096 289.887 64.5025C289.887 64.5025 283.719 72.9052 276.662 71.7423C269.604 70.5793 253.586 48.5864 255.57 33.0807C255.57 33.0807 251.739 68.2307 290.56 80.7492C290.56 80.7492 286.923 84.5572 282.442 83.6565C277.962 82.7558 256.846 67.6264 253.46 44.6073L251.032 46.8876C251.032 46.8876 259.013 60.9909 263.049 69.0744C265.421 73.5269 268.683 77.4439 272.634 80.5821C276.584 83.7202 281.137 86.0125 286.011 87.3163C286.011 87.3163 280.629 88.6503 271.577 85.629C262.524 82.6076 253.996 54.743 253.996 54.743C253.996 54.743 261.532 82.8129 271.098 87.2023C276.752 89.8258 282.954 91.0498 289.18 90.7709C289.18 90.7709 290.685 98.2615 289.351 100.462C288.017 102.662 267.621 99.3218 259.047 91.7628C250.473 84.2038 247.782 66.2355 247.782 66.2355C248.077 70.5191 248.764 74.7668 249.835 78.925L250.507 84.3976C250.507 84.3976 263.322 106.163 289.123 104.566C289.123 104.566 280.835 111.407 270.46 110.552C260.084 109.697 252.035 93.0968 252.035 93.0968C252.035 93.0968 253.802 104.84 258.26 109.503C262.718 114.166 283.411 117.484 293.684 113.573C293.684 113.573 289.614 97.3038 295.052 76.5878C300.49 55.8718 304.481 38.6901 304.481 38.6901Z" fill="#474747"/>
<path d="M294.778 64.8552C294.778 64.8552 281.097 64.9578 267.552 52.006C254.007 39.0542 258.18 28.1318 258.18 28.1318C257.11 29.6678 256.233 31.3297 255.569 33.08C254.84 35.3602 260.837 66.5198 276.593 72.9843C292.35 79.4488 294.778 64.8552 294.778 64.8552Z" fill="#0A0A0A"/>
<path d="M286.011 87.3601C286.011 87.3601 274.609 89.7772 267.438 82.6742C260.267 75.5712 252.856 50.1123 252.856 50.1123C252.856 50.1123 262.296 69.996 271.235 78.0681C273.753 80.4109 276.789 82.1264 280.096 83.0753C283.402 84.0243 286.885 84.1798 290.263 83.5293C290.098 84.5574 289.586 85.498 288.813 86.1949C288.039 86.8918 287.05 87.303 286.011 87.3601Z" fill="#0A0A0A"/>
<path d="M291.381 103.231C291.381 103.231 274.894 112.056 263.562 106.651C252.229 101.247 250.553 84.3848 250.553 84.3848C250.553 84.3848 252.525 103.22 260.814 109.844C269.103 116.468 287.994 112.888 292.27 106.606L291.381 103.231Z" fill="#0A0A0A"/>
<path d="M344.624 13.4004C343.299 13.8489 341.925 14.136 340.531 14.2555C338.459 14.52 336.404 14.9006 334.375 15.3956L335.971 16.9462L332.984 16.7524L331.41 17.8925C331.41 17.8925 313.168 18.4625 304.538 23.0116C295.907 27.5607 291.552 39.304 291.552 39.304C291.552 39.304 282.146 40.0679 275.487 34.0366C275.487 34.0366 278.224 38.8821 287.094 43.1576C287.094 43.1576 287.47 46.863 285.076 47.7181C285.076 47.7181 277.79 46.0421 270.813 37.1263C270.813 37.1263 272.512 48.3566 288.359 57.6486C288.518 58.3175 288.461 59.0195 288.197 59.6543C287.933 60.2891 287.475 60.8241 286.889 61.1829C284.756 62.8361 275.271 58.5265 270.38 49.5879C270.38 49.5879 275.932 61.0917 288.165 63.885C288.165 63.885 279.786 73.006 279.489 74.0207C279.193 75.0354 282.909 76.9166 283.001 77.8059C283.092 78.6952 278.064 81.6595 277.768 82.2866C277.471 82.9137 278.144 87.611 278.144 87.611C275.677 87.4613 273.277 86.7535 271.125 85.5408C268.972 84.3281 267.123 82.6423 265.716 80.6106C265.716 80.6106 268.909 87.6338 279.865 89.0247L280.595 90.1649C280.595 90.1649 276.354 97.7581 275.476 99.4113C274.598 101.064 278.144 102.832 278.189 103.801C278.235 104.77 274.245 111.782 274.769 113.355C275.293 114.928 282.864 115.327 282.864 115.327L288.086 114.404C288.086 114.404 291.802 81.0553 299.487 59.5868C307.171 38.1183 348.786 22.0197 348.786 22.0197L363.676 19.5799C363.676 19.5799 352.126 18.9642 344.624 13.4004Z" fill="#0A0A0A"/>
<path d="M365.454 84.8288C366.287 84.3613 373.002 80.4507 378.497 70.7939C377.802 71.5806 366.424 84.0535 352.605 88.728C353.141 88.2834 362.296 80.884 364.383 70.8281C364.383 70.8281 356.733 78.8774 349.333 83.6431C349.333 83.6431 353.723 69.8248 345.069 63.3831C343.608 62.3738 341.961 61.6647 340.224 61.2967C332.465 59.411 324.588 58.0549 316.646 57.2378C316.646 57.2378 323.931 66.2448 310.637 78.1705C297.8 89.6971 293.878 148.003 299.624 181.716C299.624 181.716 281.382 116.262 289.773 100.232C295.212 89.8453 296.454 61.0344 298.598 52.0617L298.712 51.6626C299.829 46.2186 302.308 41.1466 305.917 36.9208C308.15 34.5437 310.72 32.5077 313.545 30.8782L313.693 30.7984C314.388 30.3879 315.095 29.9889 315.825 29.6013C329.415 22.2361 349.709 17.8238 358.192 19.0323C358.192 19.0323 362.285 19.4428 367.769 20.3777H367.986C374.519 21.3806 380.941 23.0109 387.162 25.246C388.124 25.6203 388.978 26.2275 389.648 27.0132C390.108 27.5338 390.492 28.1173 390.788 28.7462C395.212 38.4258 402.668 73.8608 365.454 84.8288Z" fill="#161616"/>
<path d="M308.243 34.5829C308.243 34.5829 332.368 32.1545 346.597 39.9073C360.825 47.6601 359.013 56.5531 359.013 56.5531C359.013 56.5531 357.394 44.1486 341.911 42.3814C319.758 39.8389 311.401 35.9625 305.165 37.7069L308.243 34.5829Z" fill="#0A0A0A"/>
<path style="mix-blend-mode:multiply" opacity="0.6" d="M366.617 57.6266C366.617 57.6266 375.351 45.165 375.647 36.8535C375.647 36.8535 376.479 62.7685 355.946 71.8097C355.946 71.8439 365.147 64.2165 366.617 57.6266Z" fill="url(#paint15_linear_427_2101)"/>
<path d="M320.876 27.129C320.876 27.129 349.937 17.5862 367.062 23.6402C384.187 29.6943 370.608 51.9723 370.608 51.9723C370.608 51.9723 363.995 62.9745 357.987 65.3687C357.987 65.3687 369.092 46.3515 360.05 34.289C352.833 24.7233 316.042 29.6601 316.042 29.6601L320.876 27.129Z" fill="#0A0A0A"/>
<path d="M343.575 44.3778L347.076 44.1155C351.727 44.2977 356.352 43.3305 360.54 41.2994L359.571 38.1413L361.658 37.0012C361.658 37.0012 373.15 35.861 375.681 36.2487L383.48 37.2634L382.932 32.4065L386.113 34.3561C386.113 34.3561 390.275 34.3561 390.731 28.8379C392.037 32.102 392.257 35.7001 391.358 39.099C391.358 39.099 390.708 34.1395 389.91 33.957C389.112 33.7746 387.162 35.576 385.977 35.6672C384.791 35.7584 384.209 35.8382 384.209 35.8382C383.992 37.6222 383.568 39.3746 382.944 41.06C382.944 41.06 379.98 38.1527 377.813 37.537L375.647 36.91L375.567 38.1755C375.567 38.1755 368.225 36.5337 361.886 38.3123L360.814 42.3483C360.814 42.3483 351.75 44.298 349.287 47.1939C349.265 47.1369 346.072 45.4153 343.575 44.3778Z" fill="#0A0A0A"/>
<g style="mix-blend-mode:multiply" opacity="0.3">
<path d="M366.617 57.625C371.37 51.7442 374.496 44.7187 375.681 37.251C375.225 44.1798 373.594 50.9806 370.859 57.3627C366.526 66.6433 356.322 71.4889 356.322 71.4889C360.735 67.6844 364.251 62.9497 366.617 57.625Z" fill="#BB0B43"/>
</g>
<path d="M306.487 40.5245C306.487 40.5245 312.655 45.598 310.318 58.7094C308.672 66.9081 304.689 74.4553 298.849 80.4402C298.849 80.4402 308.551 74.3063 314.73 59.918C320.91 45.5296 305.199 37.6514 305.199 37.6514L306.487 40.5245Z" fill="#0A0A0A"/>
<path d="M253.46 44.5713C248.653 46.5829 244.365 49.6585 240.919 53.5669C234.876 60.2594 243.051 80.5764 251.579 89.3325L250.553 84.3844C250.553 84.3844 236.176 61.5135 241.877 53.9545C247.577 46.3955 251.853 47.1138 251.853 47.1138L253.46 44.5713Z" fill="#0A0A0A"/>
<path d="M346.665 100.802C346.665 100.802 341.386 106.411 328.925 102.204C316.463 97.9974 319.713 93.5053 322.939 92.8098C327.864 91.7495 335.948 89.2298 343.131 92.3652C352.765 101.247 349.823 101.258 346.665 100.802Z" fill="#F2B186"/>
<path d="M365.238 100.426C369.43 100.986 373.679 99.9483 377.141 97.5189C383.833 89.7661 378.053 89.4468 375.795 89.5381C372.375 89.6749 368.441 90.8834 365.112 96.1622C360.711 103.151 362.798 98.0662 365.238 100.426Z" fill="#F2B186"/>
<path d="M344.385 97.7129C344.385 97.7129 348.079 97.9979 349.025 100.107C347.625 100.56 346.124 100.596 344.704 100.21L344.385 97.7129Z" fill="#D36E8A"/>
<path d="M346.038 99.7773C346.038 99.7773 345.867 96.0263 339.038 94.909C335.176 94.1888 331.192 94.4994 327.488 95.8097C327.488 95.8097 333.987 103.916 346.038 99.7773Z" fill="url(#paint16_linear_427_2101)"/>
<path d="M338.411 97.3831C338.314 98.1016 338.008 98.7756 337.53 99.3207C337.052 99.8658 336.423 100.258 335.724 100.447C335.024 100.637 334.284 100.615 333.596 100.386C332.908 100.157 332.303 99.7295 331.858 99.1579C331.412 98.5863 331.144 97.8958 331.089 97.1729C331.034 96.4501 331.193 95.727 331.547 95.0943C331.901 94.4617 332.434 93.9476 333.079 93.6165C333.724 93.2854 334.452 93.152 335.173 93.2331C335.659 93.2908 336.128 93.4443 336.555 93.6846C336.981 93.925 337.356 94.2474 337.657 94.6332C337.958 95.0191 338.179 95.4607 338.309 95.9327C338.438 96.4047 338.473 96.8977 338.411 97.3831Z" fill="#320909"/>
<path d="M338.183 97.3587C338.094 98.0252 337.81 98.6508 337.368 99.1572C336.925 99.6636 336.344 100.028 335.695 100.206C335.046 100.383 334.36 100.366 333.721 100.155C333.083 99.9445 332.52 99.5504 332.104 99.022C331.688 98.4936 331.438 97.8543 331.383 97.184C331.329 96.5138 331.473 95.8424 331.798 95.2537C332.123 94.665 332.614 94.1852 333.21 93.8741C333.806 93.5631 334.481 93.4348 335.15 93.5051C336.061 93.6193 336.89 94.0878 337.457 94.8092C338.025 95.5305 338.286 96.4466 338.183 97.3587Z" fill="#471F1F"/>
<path d="M336.985 97.3028C336.93 97.7504 336.743 98.1715 336.449 98.513C336.154 98.8545 335.765 99.1009 335.33 99.2211C334.896 99.3414 334.435 99.33 334.007 99.1885C333.579 99.047 333.202 98.7817 332.925 98.4261C332.647 98.0706 332.481 97.6407 332.448 97.191C332.415 96.7412 332.516 96.2917 332.738 95.8993C332.961 95.507 333.294 95.1893 333.697 94.9866C334.1 94.7838 334.554 94.7051 335.002 94.7603C335.299 94.797 335.586 94.8919 335.846 95.0395C336.107 95.1871 336.336 95.3846 336.52 95.6207C336.704 95.8568 336.84 96.1269 336.92 96.4155C337 96.7041 337.022 97.0056 336.985 97.3028Z" fill="#050505"/>
<path d="M336.757 97.2688C336.743 97.4001 336.678 97.5203 336.575 97.6035C336.473 97.6868 336.342 97.7263 336.21 97.7135C336.144 97.7064 336.08 97.6863 336.022 97.6543C335.964 97.6223 335.912 97.5791 335.871 97.5271C335.83 97.4751 335.799 97.4155 335.781 97.3515C335.763 97.2876 335.758 97.2208 335.766 97.1548C335.767 97.0848 335.782 97.0158 335.812 96.9522C335.841 96.8886 335.884 96.8319 335.936 96.7857C335.989 96.7395 336.051 96.7049 336.118 96.684C336.184 96.6631 336.255 96.6564 336.324 96.6644C336.394 96.6724 336.461 96.6949 336.522 96.7304C336.582 96.7659 336.634 96.8137 336.675 96.8706C336.716 96.9276 336.744 96.9924 336.758 97.061C336.773 97.1296 336.772 97.2004 336.757 97.2688Z" fill="white"/>
<path d="M347.007 98.0666C347.007 98.0666 343.005 89.5841 327.956 94.042C327.956 94.042 323.943 95.0795 321.959 93.3009C321.959 93.3009 322.791 97.1545 328.024 95.5812C331.059 94.6508 334.249 94.3369 337.407 94.6577C337.407 94.6577 342.72 94.9313 345.058 97.6904C345.058 97.7246 346.015 99.2068 347.007 98.0666Z" fill="#161616"/>
<path d="M344.704 100.199C344.704 100.199 339.163 101.864 335.515 100.507C331.866 99.1501 330.339 98.7853 327.534 95.8096L326.759 95.9008C328.868 98.482 331.765 100.3 335.006 101.077C338.248 101.853 341.655 101.545 344.704 100.199Z" fill="#161616"/>
<path d="M367.609 96.6758C366.881 96.8679 366.201 97.2093 365.612 97.6785C365.024 98.1476 364.539 98.7341 364.189 99.4007C364.637 99.5782 365.12 99.65 365.601 99.6105C366.081 99.5709 366.546 99.4211 366.959 99.1727L367.609 96.6758Z" fill="#D36E8A"/>
<path d="M366.15 98.8522C366.548 97.5867 367.249 96.4378 368.193 95.5057C369.137 94.5737 370.295 93.8868 371.565 93.5051C376.126 91.8633 378.828 93.5051 378.828 93.5051C378.828 93.5051 373.139 102.056 366.15 98.8522Z" fill="url(#paint17_linear_427_2101)"/>
<path d="M367.495 98.0667C367.917 99.8567 369.331 100.552 370.653 99.6172C371.353 99.0165 371.875 98.2356 372.162 97.3593C372.45 96.483 372.492 95.5448 372.284 94.6463C371.862 92.8449 370.448 92.1494 369.126 93.0843C368.426 93.6877 367.904 94.4706 367.617 95.3486C367.33 96.2266 367.288 97.1664 367.495 98.0667Z" fill="#320909"/>
<path d="M367.643 97.9647C368.042 99.6407 369.365 100.245 370.608 99.4126C371.261 98.8521 371.749 98.1234 372.019 97.3055C372.288 96.4876 372.328 95.6116 372.135 94.7723C371.748 93.0849 370.414 92.4921 369.183 93.313C368.53 93.8771 368.042 94.6074 367.771 95.4265C367.5 96.2455 367.456 97.1226 367.643 97.9647Z" fill="#471F1F"/>
<path d="M368.442 97.4745C368.704 98.6147 369.582 99.0023 370.38 98.4208C370.805 98.056 371.123 97.5815 371.298 97.0488C371.473 96.5161 371.498 95.9457 371.372 95.3995C371.121 94.2594 370.232 93.8718 369.445 94.4418C369.02 94.8103 368.703 95.2865 368.526 95.8202C368.35 96.354 368.32 96.9255 368.442 97.4745Z" fill="#050505"/>
<path d="M368.59 97.3591C368.647 97.5985 368.84 97.6897 369.012 97.5643C369.107 97.4856 369.178 97.3823 369.218 97.2657C369.258 97.149 369.266 97.0236 369.24 96.9031C369.183 96.6636 368.989 96.5724 368.818 96.6978C368.723 96.7766 368.651 96.8799 368.611 96.9965C368.571 97.1131 368.563 97.2386 368.59 97.3591Z" fill="white"/>
<path d="M365.842 97.2226C365.842 97.2226 370.004 88.4779 378.851 91.7728C378.851 91.7728 378.475 92.6849 380.082 90.7695C380.082 90.7695 380.162 93.5742 378.52 93.3348C376.577 93.046 374.607 92.9772 372.649 93.1296C370.462 93.6531 368.529 94.9283 367.187 96.7324C367.187 96.7324 366.287 98.2259 365.842 97.2226Z" fill="#161616"/>
<path d="M366.937 99.2073C367.886 99.5488 368.896 99.6897 369.903 99.621C370.909 99.5523 371.891 99.2755 372.785 98.8082C375.201 97.5688 377.275 95.7564 378.828 93.5295L379.136 93.29C379.136 93.29 373.276 102.958 366.937 99.2073Z" fill="#161616"/>
<path opacity="0.6" d="M371.417 131.016C371.417 131.016 366.857 126.022 361.943 128.018C361.343 128.233 360.711 128.345 360.073 128.348C358.298 128.304 356.556 128.84 355.114 129.876C348.934 134.015 345.183 132.498 344.853 132.247C345.572 133.418 346.716 134.267 348.044 134.617C349.373 134.967 350.786 134.792 351.99 134.129C355.9 132.316 365.318 132.715 366.412 132.612C371.93 132.122 372.136 130.936 371.417 131.016Z" fill="#BB0B43"/>
<path opacity="0.6" d="M373.196 129.647C373.196 129.647 369.103 136.26 362.627 137.549C359.695 138.116 356.675 138.04 353.775 137.326C350.875 136.611 348.165 135.275 345.833 133.41C345.833 133.41 347.862 135.941 351.533 133.855C355.918 132.549 360.483 131.956 365.055 132.099C365.055 132.099 371.303 131.608 373.196 129.647Z" fill="#BB0B43"/>
<path d="M343.245 130.674C345.092 132.315 347.52 134.094 350.086 133.82C352.605 133.205 355.262 132.578 357.895 132.11C360.56 131.526 363.302 131.383 366.013 131.688C367.273 131.928 368.572 131.857 369.798 131.483C371.062 131.136 372.231 130.509 373.219 129.647C372.313 130.693 371.165 131.499 369.875 131.996C368.584 132.493 367.192 132.665 365.819 132.498C363.207 132.433 360.596 132.681 358.044 133.239C355.41 133.661 352.856 134.242 350.143 134.641C347.224 134.801 344.909 132.749 343.211 130.674H343.245Z" fill="#682447"/>
<path d="M354.737 134.549C355.617 134.451 356.508 134.524 357.359 134.766C359.024 135.165 359.081 135.792 359.081 135.792C359.081 135.792 357.747 136.544 354.737 134.549Z" fill="white"/>
<path d="M352.297 132.567C352.744 132.205 353.254 131.93 353.802 131.757C354.851 131.381 355.102 131.689 355.102 131.689C355.102 131.689 354.646 132.544 352.297 132.567Z" fill="white"/>
<path d="M380.424 97.9404L381.838 105.636L382.465 109.296L382.704 111.702V113.891L382.533 116.695L382.089 119.819L381.644 121.837L380.903 124.562L379.729 128.108L378.292 131.414L376.24 135.416L374.245 138.78L371.246 143.192L368.271 147L367.712 147.638L366.344 149.531L364.976 150.865C364.976 150.865 385.703 126.569 380.424 97.9404Z" fill="#F2B186"/>
<path d="M356.926 120.173C356.926 120.173 359.731 119.614 360.495 119.489C361.259 119.364 361.236 120.093 361.042 120.219C360.848 120.344 358.819 120.812 358.249 120.948C357.679 121.085 356.926 120.173 356.926 120.173Z" fill="#682447"/>
<path d="M359.138 99.0576C359.138 99.0576 358.693 103.002 366.64 116.399C366.64 116.399 367.29 120.31 360.381 120.663C359.527 120.889 358.712 121.243 357.964 121.712C357.964 121.712 357.838 120.902 360.084 119.876C362.33 118.85 363.858 118.611 363.824 116.536C363.79 114.461 358.807 104.245 359.138 99.0576Z" fill="#F2B186"/>
<path d="M355.045 116.206C351.784 119.455 354.236 121.656 356.185 120.767C357.788 119.947 359.574 119.554 361.373 119.626C360.246 119.377 359.079 119.377 357.952 119.626C354.099 120.767 353.791 119.626 354.817 116.879L355.045 116.206Z" fill="#F2B186"/>
<path d="M145.16 216.229H143.358L144.499 218.339H146.528L147.235 219.661L143.666 219.729L139.505 211.942L142.925 211.874L143.632 213.185H141.739L142.697 214.975H144.499L145.16 216.229Z" fill="black"/>
<path d="M144.157 211.954C144.637 211.832 145.131 211.771 145.627 211.772C146.524 211.728 147.414 211.955 148.181 212.422C149.349 213.182 150.287 214.246 150.895 215.5C151.738 217.073 151.921 218.202 151.556 218.818C151.191 219.434 150.655 219.593 149.549 219.616C149.128 219.637 148.705 219.633 148.284 219.605L144.157 211.954ZM149.15 218.396C149.241 218.407 149.333 218.407 149.424 218.396C150.165 218.396 150.427 217.644 149.276 215.5C148.421 213.904 147.486 212.935 146.562 212.958C146.469 212.933 146.371 212.933 146.277 212.958L149.15 218.396Z" fill="black"/>
<path d="M151.317 211.691L153.984 216.753C154.6 217.893 155.125 218.246 155.535 218.235C155.945 218.224 156.128 217.904 155.535 216.73L152.844 211.668H154.372L156.937 216.468C158.009 218.463 157.827 219.569 156.31 219.592C154.794 219.615 153.426 218.52 152.377 216.571L149.812 211.759L151.317 211.691Z" fill="black"/>
<path d="M164.097 219.102C163.625 219.302 163.117 219.407 162.604 219.409C161.712 219.431 160.836 219.177 160.096 218.68C158.94 217.892 158.013 216.815 157.405 215.556C155.934 212.728 156.937 211.508 158.545 211.486C159.025 211.47 159.503 211.54 159.959 211.691L160.381 213.002C160.065 212.88 159.727 212.825 159.389 212.842C158.351 212.842 157.895 213.583 158.99 215.624C159.993 217.494 161.087 218.144 161.794 218.132C161.889 218.15 161.985 218.15 162.079 218.132L161.076 216.24H160.369L159.708 215.009H161.828L164.097 219.102Z" fill="black"/>
<path d="M165.648 217.483L166.252 219.273H164.77L162.307 211.44H164.143L169.844 219.205H168.361L167.073 217.437L165.648 217.483ZM166.298 216.286L165.158 214.656C164.816 214.188 164.303 213.413 163.949 212.888C164.143 213.413 164.462 214.222 164.622 214.678L165.192 216.309L166.298 216.286Z" fill="black"/>
<path d="M167.552 212.786H166.161L165.386 211.417L169.707 211.326L170.448 212.729H169.045L172.466 219.125H170.938L167.552 212.786Z" fill="black"/>
<path d="M176.205 215.624H174.415L175.556 217.722H177.585L178.292 219.033L174.735 219.102L170.573 211.314L173.994 211.246L174.689 212.569H172.808L173.766 214.359H175.556L176.205 215.624Z" fill="black"/>
<path d="M175.145 211.224H176.673L180.207 217.7H182.225L182.909 218.976L179.364 219.045L175.145 211.224Z" fill="black"/>
<path d="M184.038 218.92L182.487 215.944L178.189 211.167H179.82L181.347 212.98C181.758 213.481 182.214 214.052 182.647 214.633C182.43 214.063 182.259 213.493 182.1 212.934L181.598 211.099H183.183L183.958 215.887L185.566 218.92H184.038Z" fill="black"/>
<path d="M396.785 142.486L399.863 141.551L411.892 75.3438L409.908 74.3291" fill="url(#paint18_linear_427_2101)"/>
</g>
</g>
<defs>
<linearGradient id="paint0_linear_427_2101" x1="494.391" y1="807.678" x2="420.283" y2="387.418" gradientUnits="userSpaceOnUse">
<stop stop-color="#FF957C"/>
<stop offset="0.98" stop-color="#D17D67"/>
</linearGradient>
<linearGradient id="paint1_linear_427_2101" x1="405.712" y1="865.254" x2="317.433" y2="364.546" gradientUnits="userSpaceOnUse">
<stop stop-color="#FF957C"/>
<stop offset="0.98" stop-color="#FFAE78"/>
</linearGradient>
<linearGradient id="paint2_linear_427_2101" x1="329.21" y1="201.68" x2="329.21" y2="159.233" gradientUnits="userSpaceOnUse">
<stop offset="0.01" stop-color="#EFEDFF"/>
<stop offset="1" stop-color="#EBE8FF"/>
</linearGradient>
<linearGradient id="paint3_linear_427_2101" x1="352.833" y1="200.369" x2="352.833" y2="161.73" gradientUnits="userSpaceOnUse">
<stop offset="0.01" stop-color="#EFEDFF"/>
<stop offset="1" stop-color="#EBE8FF"/>
</linearGradient>
<linearGradient id="paint4_linear_427_2101" x1="419.268" y1="200.609" x2="419.268" y2="178.559" gradientUnits="userSpaceOnUse">
<stop offset="0.01" stop-color="#EFEDFF"/>
<stop offset="1" stop-color="#EBE8FF"/>
</linearGradient>
<linearGradient id="paint5_linear_427_2101" x1="224.649" y1="288.991" x2="224.649" y2="257.318" gradientUnits="userSpaceOnUse">
<stop offset="0.01" stop-color="#EFEDFF"/>
<stop offset="1" stop-color="#EBE8FF"/>
</linearGradient>
<linearGradient id="paint6_linear_427_2101" x1="224.159" y1="335.689" x2="224.159" y2="335.531" gradientUnits="userSpaceOnUse">
<stop offset="0.01" stop-color="#BE6888"/>
<stop offset="1" stop-color="#8E81F4"/>
</linearGradient>
<linearGradient id="paint7_linear_427_2101" x1="263.169" y1="96.4159" x2="294.97" y2="105.547" gradientUnits="userSpaceOnUse">
<stop stop-color="#FFD9A4"/>
<stop offset="1" stop-color="#FFB69A"/>
</linearGradient>
<linearGradient id="paint8_linear_427_2101" x1="266.051" y1="96.9942" x2="289.918" y2="103.847" gradientUnits="userSpaceOnUse">
<stop offset="0.01" stop-color="#D8608B"/>
<stop offset="1" stop-color="#FFEADB"/>
</linearGradient>
<linearGradient id="paint9_linear_427_2101" x1="275.067" y1="106.451" x2="278.934" y2="92.9828" gradientUnits="userSpaceOnUse">
<stop stop-color="#FFEADB"/>
<stop offset="0.99" stop-color="#D8608B"/>
</linearGradient>
<linearGradient id="paint10_linear_427_2101" x1="283.435" y1="105.069" x2="285.707" y2="97.1571" gradientUnits="userSpaceOnUse">
<stop stop-color="#FFEADB"/>
<stop offset="0.99" stop-color="#D8608B"/>
</linearGradient>
<linearGradient id="paint11_linear_427_2101" x1="279.139" y1="115.734" x2="281.59" y2="107.198" gradientUnits="userSpaceOnUse">
<stop offset="0.01" stop-color="#D8608B"/>
<stop offset="1" stop-color="#FFEADB"/>
</linearGradient>
<linearGradient id="paint12_linear_427_2101" x1="282.717" y1="110.546" x2="300.013" y2="50.3074" gradientUnits="userSpaceOnUse">
<stop offset="0.01" stop-color="#AB4F42"/>
<stop offset="0.99" stop-color="#9F4545"/>
</linearGradient>
<linearGradient id="paint13_linear_427_2101" x1="307.057" y1="25.0702" x2="312.966" y2="4.49018" gradientUnits="userSpaceOnUse">
<stop stop-color="#FFEADB"/>
<stop offset="0.99" stop-color="#B060F4"/>
</linearGradient>
<linearGradient id="paint14_linear_427_2101" x1="299.257" y1="31.8702" x2="306.185" y2="7.73963" gradientUnits="userSpaceOnUse">
<stop stop-color="#FFEADB"/>
<stop offset="0.99" stop-color="#B060F4"/>
</linearGradient>
<linearGradient id="paint15_linear_427_2101" x1="361.284" y1="73.3443" x2="372.054" y2="35.8335" gradientUnits="userSpaceOnUse">
<stop stop-color="#FFEADB"/>
<stop offset="0.99" stop-color="#B060F4"/>
</linearGradient>
<linearGradient id="paint16_linear_427_2101" x1="362.903" y1="162.127" x2="361.962" y2="154.959" gradientUnits="userSpaceOnUse">
<stop stop-color="white"/>
<stop offset="1" stop-color="#DDD6FA"/>
</linearGradient>
<linearGradient id="paint17_linear_427_2101" x1="371.637" y1="100.197" x2="373.214" y2="92.1646" gradientUnits="userSpaceOnUse">
<stop stop-color="white"/>
<stop offset="1" stop-color="#DDD6FA"/>
</linearGradient>
<linearGradient id="paint18_linear_427_2101" x1="396.785" y1="108.407" x2="411.892" y2="108.407" gradientUnits="userSpaceOnUse">
<stop offset="0.01" stop-color="#EFEDFF"/>
<stop offset="1" stop-color="#EBE8FF"/>
</linearGradient>
</defs>
</svg>
