<svg width="19" height="19" viewBox="0 0 19 19" fill="none" xmlns="http://www.w3.org/2000/svg">
<path fill-rule="evenodd" clip-rule="evenodd" d="M7.65807 1.0316C5.42568 1.30363 3.4911 2.49013 2.24484 4.35164C1.08917 6.07784 0.714538 8.25209 1.22037 10.2974C1.41364 11.0789 1.79903 11.9518 2.24484 12.6177C3.65244 14.7202 5.96497 15.9679 8.4644 15.9734C10.1058 15.977 11.6382 15.4697 12.9685 14.4824L13.2757 14.2543L15.0813 16.0644C16.2972 17.2832 16.9303 17.8947 17.0197 17.9367C17.444 18.1358 17.9539 17.8424 17.9928 17.3768C18.0213 17.035 18.06 17.081 16.0775 15.0979L14.2548 13.2747L14.4827 12.9673C15.4696 11.6364 15.9766 10.1032 15.973 8.46104C15.9705 7.31619 15.713 6.21103 15.2122 5.19647C14.4676 3.68769 13.2639 2.48355 11.7745 1.75733C10.9527 1.35657 10.2022 1.13812 9.26901 1.02808C8.93813 0.989056 7.99031 0.991148 7.65807 1.0316ZM9.0752 2.4229C10.4867 2.56031 11.7787 3.17261 12.7881 4.18245C13.7036 5.09852 14.2801 6.22238 14.5007 7.52145C14.5696 7.92686 14.5794 8.95649 14.5181 9.34822C14.3097 10.6813 13.7198 11.8527 12.7871 12.7859C11.8543 13.7191 10.6835 14.3092 9.35114 14.5178C8.95961 14.5791 7.93049 14.5693 7.52528 14.5004C6.22686 14.2797 5.10357 13.7029 4.18795 12.7869C2.53103 11.1291 1.97418 8.71466 2.73606 6.49182C3.33408 4.74705 4.75134 3.32905 6.49616 2.7297C7.33596 2.44124 8.20344 2.33804 9.0752 2.4229Z" fill="white" stroke="white" stroke-width="0.5"/>
</svg>
